<svg width="20" height="20" viewBox="0 0 20 20" fill="none" xmlns="http://www.w3.org/2000/svg">
<path d="M10 12.5C11.3807 12.5 12.5 11.3807 12.5 10C12.5 8.61929 11.3807 7.5 10 7.5C8.61929 7.5 7.5 8.61929 7.5 10C7.5 11.3807 8.61929 12.5 10 12.5Z" stroke="currentColor" stroke-width="1.5" stroke-linecap="round" stroke-linejoin="round"/>
<path d="M16.1667 12.5C16.0553 12.7513 16.0201 13.0302 16.0655 13.3016C16.1109 13.573 16.2348 13.8254 16.4217 14.0267L16.4667 14.0717C16.6189 14.2237 16.7397 14.4046 16.8221 14.6037C16.9046 14.8028 16.947 15.0162 16.947 15.2317C16.947 15.4472 16.9046 15.6605 16.8221 15.8597C16.7397 16.0588 16.6189 16.2397 16.4667 16.3917C16.3147 16.5439 16.1337 16.6646 15.9346 16.7471C15.7355 16.8296 15.5222 16.872 15.3067 16.872C15.0912 16.872 14.8778 16.8296 14.6787 16.7471C14.4796 16.6646 14.2987 16.5439 14.1467 16.3917L14.1017 16.3467C13.9004 16.1597 13.648 16.0359 13.3766 15.9905C13.1051 15.9451 12.8263 15.9803 12.575 16.0917C12.3286 16.1982 12.1189 16.3732 11.9714 16.5967C11.824 16.8202 11.7453 17.0826 11.745 17.3508V17.5C11.745 17.9311 11.5738 18.3446 11.2691 18.6493C10.9644 18.954 10.5508 19.1252 10.1197 19.1252C9.68863 19.1252 9.27508 18.954 8.9704 18.6493C8.66572 18.3446 8.49447 17.9311 8.49447 17.5V17.4317C8.48862 17.1562 8.40147 16.8883 8.24283 16.6614C8.08418 16.4346 7.86119 16.2587 7.60114 16.1558C7.34987 16.0444 7.07098 16.0093 6.79958 16.0547C6.52817 16.1001 6.27579 16.2239 6.07447 16.4108L6.02947 16.4558C5.87747 16.608 5.69654 16.7288 5.49743 16.8113C5.29833 16.8938 5.08497 16.9362 4.86947 16.9362C4.65398 16.9362 4.44062 16.8938 4.24151 16.8113C4.04241 16.7288 3.86148 16.608 3.70947 16.4558C3.55728 16.3038 3.43652 16.1229 3.35406 15.9238C3.2716 15.7247 3.22918 15.5113 3.22918 15.2958C3.22918 15.0803 3.2716 14.867 3.35406 14.6679C3.43652 14.4688 3.55728 14.2878 3.70947 14.1358L3.75447 14.0908C3.94139 13.8895 4.06523 13.6371 4.11064 13.3657C4.15605 13.0943 4.12087 12.8154 4.00947 12.5642C3.903 12.3177 3.72796 12.108 3.50447 11.9606C3.28098 11.8132 3.01861 11.7344 2.75031 11.7342H2.59947C2.16838 11.7342 1.75483 11.5629 1.45015 11.2582C1.14548 10.9536 0.974219 10.54 0.974219 10.1089C0.974219 9.67782 1.14548 9.26427 1.45015 8.95959C1.75483 8.65492 2.16838 8.48366 2.59947 8.48366H2.66781C2.94334 8.47781 3.21118 8.39066 3.43805 8.23202C3.66492 8.07337 3.84084 7.85038 3.94364 7.59033C4.05505 7.33906 4.09023 7.06017 4.04482 6.78876C3.99941 6.51736 3.87557 6.26497 3.68864 6.06366L3.64364 6.01866C3.49145 5.86666 3.37069 5.68573 3.28823 5.48662C3.20577 5.28752 3.16335 5.07416 3.16335 4.85866C3.16335 4.64316 3.20577 4.4298 3.28823 4.2307C3.37069 4.03159 3.49145 3.85066 3.64364 3.69866C3.79565 3.54647 3.97658 3.42571 4.17568 3.34325C4.37479 3.26079 4.58815 3.21837 4.80364 3.21837C5.01914 3.21837 5.2325 3.26079 5.4316 3.34325C5.6307 3.42571 5.81163 3.54647 5.96364 3.69866L6.00864 3.74366C6.20995 3.93059 6.46234 4.05443 6.73375 4.09984C7.00516 4.14525 7.28404 4.11007 7.53531 3.99866H7.59947C7.84598 3.89219 8.05569 3.71715 8.20308 3.49366C8.35048 3.27017 8.42924 3.00781 8.42947 2.7395V2.58866C8.42947 2.15757 8.60073 1.74402 8.90541 1.43934C9.21008 1.13467 9.62363 0.963408 10.0547 0.963408C10.4858 0.963408 10.8994 1.13467 11.204 1.43934C11.5087 1.74402 11.68 2.15757 11.68 2.58866V2.65699C11.6802 2.92528 11.759 3.18765 11.9064 3.41114C12.0538 3.63463 12.2635 3.80966 12.51 3.91616C12.7612 4.02757 13.0401 4.06275 13.3115 4.01734C13.5829 3.97193 13.8353 3.84809 14.0367 3.66116L14.0817 3.61616C14.2337 3.46397 14.4146 3.34321 14.6137 3.26075C14.8128 3.17829 15.0262 3.13587 15.2417 3.13587C15.4572 3.13587 15.6705 3.17829 15.8696 3.26075C16.0687 3.34321 16.2497 3.46397 16.4017 3.61616C16.5539 3.76817 16.6746 3.9491 16.7571 4.1482C16.8396 4.34731 16.882 4.56067 16.882 4.77616C16.882 4.99166 16.8396 5.20502 16.7571 5.40412C16.6746 5.60323 16.5539 5.78416 16.4017 5.93616L16.3567 5.98116C16.1697 6.18247 16.0459 6.43486 16.0005 6.70627C15.9551 6.97768 15.9903 7.25656 16.1017 7.50783V7.57199C16.2081 7.8185 16.3832 8.02821 16.6067 8.1756C16.8302 8.323 17.0925 8.40176 17.3608 8.40199H17.5117C17.9428 8.40199 18.3563 8.57325 18.661 8.87793C18.9657 9.1826 19.1369 9.59615 19.1369 10.0272C19.1369 10.4583 18.9657 10.8719 18.661 11.1766C18.3563 11.4812 17.9428 11.6525 17.5117 11.6525H17.4433C17.175 11.6527 16.9127 11.7315 16.6892 11.8789C16.4657 12.0263 16.2906 12.236 16.1842 12.4825V12.5Z" stroke="currentColor" stroke-width="1.5" stroke-linecap="round" stroke-linejoin="round"/>
</svg>
